<svg id="visual" viewBox="0 0 900 600" width="900" height="600" xmlns="http://www.w3.org/2000/svg" xmlns:xlink="http://www.w3.org/1999/xlink" version="1.1"><path d="M0 394L25 403C50 412 100 430 150 445.5C200 461 250 474 300 471.3C350 468.7 400 450.3 450 435.2C500 420 550 408 600 401C650 394 700 392 750 392.3C800 392.7 850 395.3 875 396.7L900 398L900 601L875 601C850 601 800 601 750 601C700 601 650 601 600 601C550 601 500 601 450 601C400 601 350 601 300 601C250 601 200 601 150 601C100 601 50 601 25 601L0 601Z" fill="#dab081"></path><path d="M0 492L25 482.3C50 472.7 100 453.3 150 457.3C200 461.3 250 488.7 300 498.2C350 507.7 400 499.3 450 483.3C500 467.3 550 443.7 600 432.5C650 421.3 700 422.7 750 436.7C800 450.7 850 477.3 875 490.7L900 504L900 601L875 601C850 601 800 601 750 601C700 601 650 601 600 601C550 601 500 601 450 601C400 601 350 601 300 601C250 601 200 601 150 601C100 601 50 601 25 601L0 601Z" fill="#e6c9a8"></path><path d="M0 501L25 500.8C50 500.7 100 500.3 150 505.8C200 511.3 250 522.7 300 520.5C350 518.3 400 502.7 450 493.3C500 484 550 481 600 490.5C650 500 700 522 750 523.5C800 525 850 506 875 496.5L900 487L900 601L875 601C850 601 800 601 750 601C700 601 650 601 600 601C550 601 500 601 450 601C400 601 350 601 300 601C250 601 200 601 150 601C100 601 50 601 25 601L0 601Z" fill="#f1e2d1"></path></svg>